#!OML:ASF H:\Pregnant\Project 1\Capture day 1\Session 1\femalepreg.ASF
:FULLY-SPECIFIED
:DEGREES
491
root 3.35829 15.7731 12.8751 20.4111 -12.3552 -1.36402
lowerback -14.3462 -1.95754 -1.18827
upperback -5.68286 -2.55299 2.47656
thorax 2.20455 -1.25809 2.85136
lowerneck -17.5617 -8.57609 -8.04263
upperneck 23.068 -11.5199 6.29064
head 11.236 -5.22815 1.83507
rclavicle 3.89991e-014 -1.86858e-014
rhumerus -34.0116 2.75527 -78.1576
rradius 27.3577
rwrist -6.19526
rhand -15.7602 -16.363
rfingers 7.12502
rthumb 10.4315 -46.0842
lclavicle 3.89991e-014 -1.86858e-014
lhumerus -37.8062 -5.65097 85.0316
lradius 36.7316
lwrist 35.9005
lhand -24.6117 -3.14765
lfingers 7.12502
lthumb 1.88661 26.8238
rfemur -33.7822 20.9448 2.26484
rtibia 28.4571
rfoot -8.80278 -30.3389
rtoes -12.7124
lfemur -11.2098 3.46731 -9.50609
ltibia -2.06736e-014
lfoot -6.48442 16.0331
ltoes 12.457
492
root 3.35882 15.7732 12.8922 20.2723 -12.3915 -1.35288
lowerback -14.4907 -1.93229 -1.13766
upperback -5.66104 -2.52631 2.47619
thorax 2.30108 -1.24614 2.82238
lowerneck -17.5643 -8.52368 -7.97551
upperneck 23.2823 -11.4626 6.21157
head 11.3023 -5.20356 1.80454
rclavicle 5.34358e-014 -4.05521e-014
rhumerus -33.8776 2.8587 -78.4634
rradius 27.2424
rwrist -6.05073
rhand -15.7582 -16.3334
rfingers 7.12502
rthumb 10.4334 -46.0545
lclavicle 5.34358e-014 -4.05521e-014
lhumerus -37.7658 -5.52735 85.1628
lradius 36.3141
lwrist 35.4709
lhand -24.5512 -3.27154
lfingers 7.12502
lthumb 1.94507 26.6993
rfemur -33.5187 21.3813 2.18086
rtibia 28.3222
rfoot -8.91125 -30.7055
rtoes -12.5847
lfemur -11.0216 3.5071 -9.56283
ltibia 2.54444e-014
lfoot -6.3491 16.0401
ltoes 11.4959
493
root 3.35874 15.7734 12.9092 20.1415 -12.4116 -1.32143
lowerback -14.6401 -1.91527 -1.12
upperback -5.6397 -2.50617 2.47647
thorax 2.40148 -1.2371 2.81165
lowerneck -17.5943 -8.47203 -7.90223
upperneck 23.5004 -11.4071 6.1357
head 11.3755 -5.17797 1.7728
rclavicle 8.17502e-015 -3.93594e-014
rhumerus -33.7464 2.9669 -78.7604
rradius 27.1367
rwrist -5.86216
rhand -15.7612 -16.285
rfingers 7.12502
rthumb 10.4305 -46.0063
lclavicle 8.17502e-015 -3.93594e-014
lhumerus -37.7357 -5.40024 85.2917
lradius 35.9191
lwrist 35.0237
lhand -24.502 -3.42695
lfingers 7.12502
lthumb 1.9925 26.5435
rfemur -33.2674 21.8236 2.0738
rtibia 28.2014
rfoot -9.05672 -31.1024
rtoes -12.4101
lfemur -10.8578 3.52692 -9.63603
ltibia 1.59028e-014
lfoot -6.18382 16.0538
ltoes 10.3877
494
root 3.35811 15.7734 12.9262 20.0161 -12.4136 -1.27832
lowerback -14.787 -1.90441 -1.12283
upperback -5.62166 -2.49126 2.47521
thorax 2.49804 -1.23042 2.81026
lowerneck -17.6337 -8.42087 -7.82466
upperneck 23.7128 -11.356 6.07345
head 11.4498 -5.15217 1.74419
rclavicle 5.77594e-014 -2.74323e-014
rhumerus -33.6254 3.0586 -79.0461
rradius 27.0382
rwrist -5.63264
rhand -15.7585 -16.2055
rfingers 7.12502
rthumb 10.4331 -45.9267
lclavicle 5.77594e-014 -2.74323e-014
lhumerus -37.7163 -5.27594 85.4096
lradius 35.5404
lwrist 34.572
lhand -24.4553 -3.612
lfingers 7.12502
lthumb 2.03762 26.358
rfemur -33.0236 22.2833 1.95245
rtibia 28.0936
rfoot -9.2434 -31.5371
rtoes -12.1835
lfemur -10.7119 3.52794 -9.7147
ltibia 2.70347e-014
lfoot -6.00127 16.0703
ltoes 9.21117
495
root 3.35694 15.7732 12.9427 19.8949 -12.3955 -1.2284
lowerback -14.9218 -1.90089 -1.14185
upperback -5.61128 -2.48371 2.47453
thorax 2.58117 -1.22711 2.81792
lowerneck -17.6651 -8.36792 -7.74833
upperneck 23.9109 -11.3067 6.02957
head 11.519 -5.12542 1.72249
rclavicle -3.0501e-014 -1.59028e-014
rhumerus -33.5254 3.1439 -79.3246
rradius 26.9537
rwrist -5.38009
rhand -15.7332 -16.1119
rfingers 7.12502
rthumb 10.4575 -45.8318
lclavicle -3.0501e-014 -1.59028e-014
lhumerus -37.7166 -5.14428 85.5117
lradius 35.1813
lwrist 34.1175
lhand -24.396 -3.8212
lfingers 7.12502
lthumb 2.09493 26.1483
rfemur -32.7845 22.7623 1.82358
rtibia 27.9972
rfoot -9.47036 -32.0117
rtoes -11.9099
lfemur -10.5807 3.50973 -9.79203
ltibia 3.18055e-014
lfoot -5.81192 16.0863
ltoes 8.01303
496
root 3.35532 15.7727 12.9589 19.7769 -12.3583 -1.17683
lowerback -15.0373 -1.90403 -1.17133
upperback -5.61107 -2.48337 2.47547
thorax 2.64415 -1.22708 2.83267
lowerneck -17.6831 -8.31321 -7.67583
upperneck 24.0933 -11.259 6.00529
head 11.5816 -5.09796 1.70881
rclavicle 1.799e-014 -5.56597e-015
rhumerus -33.4502 3.22242 -79.5972
rradius 26.8828
rwrist -5.11127
rhand -15.7035 -15.9941
rfingers 7.12502
rthumb 10.4862 -45.7126
lclavicle 1.799e-014 -5.56597e-015
lhumerus -37.7434 -5.00168 85.5952
lradius 34.8468
lwrist 33.6702
lhand -24.3161 -4.01898
lfingers 7.12502
lthumb 2.17209 25.9497
rfemur -32.5459 23.2532 1.69667
rtibia 27.9099
rfoot -9.73554 -32.5147
rtoes -11.6017
lfemur -10.46 3.47499 -9.86274
ltibia -1.27222e-014
lfoot -5.62259 16.1014
ltoes 6.84284
